# xmcd CD database file
#
# Track frame offsets:
#	187
#	24820
#	50772
#
# Disc length: 1003 seconds
#
# Revision: 0
# Processed by: cddbd v1.5.1PL0 Copyright (c) Steve Scherf et al.
# Submitted via: CDex 1.51
#
DISCID=1b03e903
DTITLE=FENCE OF DEFENSE - Single
DYEAR=1997
DGENRE=Rock
TTITLE0=失楽園〜PARADISE LOST〜
TTITLE1=三重人格
TTITLE2=失楽園〜PARADISE LOST〜（オリジナル・カラオケ）
EXTD=YEAR: 1997
EXTT0=
EXTT1=
EXTT2=
PLAYORDER=
